<?xml version="1.0" encoding="utf-8"?>
<!-- Generator: Adobe Illustrator 16.0.3, SVG Export Plug-In . SVG Version: 6.00 Build 0)  -->
<!DOCTYPE svg PUBLIC "-//W3C//DTD SVG 1.1//EN" "http://www.w3.org/Graphics/SVG/1.1/DTD/svg11.dtd">
<svg version="1.1" id="Layer_1" xmlns="http://www.w3.org/2000/svg" xmlns:xlink="http://www.w3.org/1999/xlink" x="0px" y="0px"
	 width="512px" height="512px" viewBox="0 0 512 512" enable-background="new 0 0 512 512" xml:space="preserve">
<g>
	<path fill="#FFFFFF" d="M514.863,247.545C510.516,111.472,400.521,1.482,264.456-2.862C190.409-5.21,121.14,22.97,69.952,75.828
		C20.733,126.635-5.126,193.622-2.863,264.455C1.48,400.524,111.475,510.519,247.544,514.858c2.833,0.093,5.643,0.14,8.452,0.14
		c70.746,0,136.818-27.998,186.053-78.825C491.26,385.365,517.123,318.375,514.863,247.545z M402.87,398.223
		c-38.868,40.132-91.028,62.228-146.874,62.228c-2.229,0-4.464-0.03-6.716-0.101c-107.39-3.434-194.197-90.237-197.631-197.635
		c-1.782-55.936,18.629-108.833,57.477-148.941c38.864-40.127,91.029-62.228,146.87-62.228c2.236,0,4.468,0.039,6.716,0.109
		c107.394,3.425,194.202,90.238,197.636,197.631C462.13,305.223,441.716,358.114,402.87,398.223z"/>
	<path fill="#FFFFFF" d="M340.949,240.95l-114.851-82.348c-12.252-8.789-29.312-0.031-29.312,15.048v164.705
		c0,15.075,17.06,23.829,29.312,15.048l114.847-82.355C351.253,263.66,351.253,248.34,340.949,240.95z"/>
</g>
</svg>
